Coordinates
version=1
nRows=25
nColumns=33
inDegrees=yes

Units are S.I. units (second, meters, Newtons, ...)
Angles are in degrees.

endheader
time	ground_thorax_rot_x	ground_thorax_rot_y	ground_thorax_rot_z	ground_thorax_tx	ground_thorax_ty	ground_thorax_tz	clav_prot_r	clav_elev_r	scapula_abduction_r	scapula_elevation_r	scapula_upward_rot_r	scapula_winging_r	shoulder_elv_r	plane_of_elev_r	axial_rot_r	elbow_flexion_r	pro_sup_r	wrist_flex_r	wrist_dev_r	clav_prot_l	clav_elev_l	scapula_abduction_l	scapula_elevation_l	scapula_upward_rot_l	scapula_winging_l	shoulder_elv_l	plane_of_elev_l	axial_rot_l	elbow_flexion_l	pro_sup_l	wrist_flex_l	wrist_dev_l	
5.5400	-40.028480	-7.615705	15.204247	-129.880237	791.617085	3.704346	-6.131510	-45.000000	44.999999	-45.000000	22.728682	-3351.847275	-2096.142562	21.725587	-180.000000	2525.615743	243.549736	17.307270	11.227616	19.647994	41.463760	-43.969473	-45.000000	-37.641733	1879.218549	-3531.065193	26.917075	-24.379967	730.228933	-335.607476	6.636786	-19.808522	
5.5500	-40.002006	-7.638001	15.230979	-132.055993	792.801198	3.546733	-5.996195	-45.000000	44.999999	-45.000000	22.531460	-3351.809354	-2095.940954	21.815617	-180.000000	2525.564063	242.960272	17.413639	11.299156	19.542865	41.407815	-43.848095	-45.000000	-37.692284	1879.404212	-3530.903770	26.916916	-24.250056	730.289504	-335.693996	6.553635	-19.839954	
5.5600	-39.965771	-7.678597	15.279448	-134.246774	793.996308	3.390754	-5.856708	-45.000000	44.999998	-45.000000	22.284282	-3351.772890	-2095.741689	21.909763	-180.000000	2525.506237	242.332435	17.514776	11.371274	19.479290	41.299522	-43.735026	-45.000000	-37.844475	1879.575757	-3530.718783	26.936953	-24.041432	730.344807	-335.805196	6.461076	-19.862792	
5.5700	-39.926145	-7.720137	15.328132	-136.449260	795.202315	3.237264	-5.707192	-45.000000	44.999996	-45.000000	22.016354	-3351.734398	-2095.543842	22.003275	-180.000000	2525.443662	241.669662	17.613841	11.445424	19.412636	41.173661	-43.623351	-45.000000	-38.025711	1879.741497	-3530.527667	26.963305	-23.820758	730.399213	-335.930909	6.372384	-19.884286	
5.5800	-39.889384	-7.753073	15.361240	-138.660303	796.419170	3.087451	-5.555266	-45.000000	44.999994	-45.000000	21.758890	-3351.695932	-2095.350201	22.092387	-180.000000	2525.378695	240.988962	17.712464	11.520962	19.332963	41.063730	-43.508298	-45.000000	-38.178480	1879.908704	-3530.346304	26.982857	-23.631056	730.452515	-336.063308	6.291375	-19.907307	
5.5900	-39.861987	-7.759283	15.358140	-140.877108	797.647000	2.942667	-5.411499	-45.000000	44.999989	-45.000000	21.549872	-3351.659035	-2095.158058	22.175950	-180.000000	2525.315631	240.321915	17.814078	11.597514	19.224185	41.007774	-43.383104	-45.000000	-38.229651	1880.086836	-3530.194241	26.985493	-23.532602	730.505056	-336.191092	6.218284	-19.933670	
5.6000	-39.844316	-7.747686	15.326850	-143.097301	798.886041	2.804218	-5.276244	-45.000000	44.999980	-45.000000	21.381766	-3351.626016	-2094.969344	22.251359	-180.000000	2525.251765	239.688641	17.919078	11.672482	19.093048	40.996439	-43.249652	-45.000000	-38.196438	1880.273538	-3530.065528	26.970038	-23.512665	730.554772	-336.315608	6.150554	-19.961740	
5.6100	-39.833579	-7.721745	15.272587	-145.318761	800.136542	2.673234	-5.151025	-45.000000	44.999964	-45.000000	21.249347	-3351.594859	-2094.779825	22.321844	-180.000000	2525.193323	239.104325	18.025693	11.745637	18.946613	41.018462	-43.111975	-45.000000	-38.096074	1880.470667	-3529.958829	26.939009	-23.574071	730.603727	-336.437947	6.081843	-19.989092	
5.6200	-39.823998	-7.697961	15.215165	-147.539590	801.398524	2.550593	-5.028106	-45.000000	44.999935	-45.000000	21.120797	-3351.563638	-2094.588588	22.389245	-180.000000	2525.139672	238.569194	18.130466	11.815353	18.799919	41.044257	-42.978050	-45.000000	-37.990726	1880.670432	-3529.858137	26.898603	-23.663606	730.652249	-336.568576	6.011060	-20.014284	
5.6300	-39.806406	-7.690023	15.175064	-149.758088	802.671617	2.436953	-4.900939	-45.000000	44.999884	-45.000000	20.964494	-3351.530446	-2094.390826	22.458937	-180.000000	2525.091294	238.070555	18.229906	11.881824	18.666880	41.036881	-42.853372	-45.000000	-37.947702	1880.865493	-3529.747481	26.860580	-23.740635	730.704258	-336.718955	5.933049	-20.034643	
5.6400	-39.770716	-7.722579	15.183696	-151.972787	803.954753	2.332753	-4.752337	-45.000000	44.999792	-45.000000	20.719588	-3351.495105	-2094.187750	22.534483	-180.000000	2525.036782	237.576887	18.322857	11.944973	18.564671	40.943309	-42.742707	-45.000000	-38.069569	1881.039868	-3529.597644	26.843900	-23.717386	730.756806	-336.910775	5.847280	-20.047165	
5.6500	-39.721234	-7.781875	15.224819	-154.182282	805.246136	2.238264	-4.589732	-45.000000	44.999628	-45.000000	20.416608	-3351.458720	-2093.979408	22.614014	-180.000000	2524.980229	237.076265	18.408489	12.006629	18.482238	40.788075	-42.641281	-45.000000	-38.304516	1881.200183	-3529.423448	26.841572	-23.634827	730.811268	-337.140059	5.757516	-20.054480	
5.6600	-39.669271	-7.845438	15.266787	-156.385447	806.543023	2.153472	-4.421958	-45.000000	44.999333	-45.000000	20.105962	-3351.424106	-2093.771700	22.691879	-180.000000	2524.919531	236.577531	18.492075	12.066427	18.391476	40.640483	-42.532729	-45.000000	-38.540864	1881.352657	-3529.246814	26.835693	-23.546830	730.863946	-337.392140	5.681389	-20.065423	
5.6700	-39.624415	-7.893324	15.285931	-158.581293	807.842458	2.078182	-4.267288	-45.000000	44.998806	-45.000000	19.840314	-3351.397233	-2093.565206	22.763071	-180.000000	2524.858865	236.098790	18.575637	12.124039	18.282200	40.542102	-42.413780	-45.000000	-38.694971	1881.509267	-3529.090024	26.812586	-23.519637	730.914789	-337.649217	5.618687	-20.081713	
5.6800	-39.587450	-7.927282	15.283438	-160.768667	809.141727	2.012058	-4.124688	-45.000000	44.997861	-45.000000	19.615710	-3351.381163	-2093.361567	22.827667	-180.000000	2524.789854	235.647192	18.663346	12.178034	18.155190	40.493852	-42.281133	-45.000000	-38.766611	1881.669424	-3528.951682	26.776177	-23.547730	730.958321	-337.907621	5.570449	-20.102539	
5.6900	-39.558140	-7.945416	15.259487	-162.945670	810.439682	1.954922	-3.998903	-45.000000	44.996167	-45.000000	19.438681	-3351.375022	-2093.157750	22.885834	-180.000000	2524.717370	235.229698	18.753058	12.228285	18.014357	40.489491	-42.140683	-45.000000	-38.755649	1881.838077	-3528.837786	26.725204	-23.647473	730.998282	-338.162818	5.529692	-20.125705	
5.7000	-39.531037	-7.961652	15.229303	-165.109573	811.736348	1.906640	-3.879660	-45.000000	44.993136	-45.000000	19.274354	-3351.373024	-2092.952958	22.942048	-180.000000	2524.642619	234.841250	18.842922	12.274639	17.869568	40.505000	-41.994247	-45.000000	-38.718395	1882.009082	-3528.732927	26.668443	-23.776349	731.038296	-338.423429	5.495441	-20.150308	
5.7100	-39.501431	-7.983156	15.206924	-167.256556	813.033219	1.867256	-3.761456	-45.000000	44.987699	-45.000000	19.091505	-3351.369163	-2092.746370	22.998962	-180.000000	2524.566688	234.470821	18.931057	12.318074	17.733638	40.503859	-41.853807	-45.000000	-38.709805	1882.180123	-3528.626399	26.616606	-23.901679	731.078545	-338.700406	5.459815	-20.171620	
5.7200	-39.464921	-8.021310	15.206781	-169.382483	814.331735	1.836560	-3.632267	-45.000000	44.977980	-45.000000	18.856572	-3351.358906	-2092.537782	23.059173	-180.000000	2524.487895	234.100171	19.015649	12.358840	17.615215	40.457584	-41.723246	-45.000000	-38.784283	1882.344701	-3528.503727	26.578736	-23.985133	731.116620	-339.008414	5.422432	-20.187104	
5.7300	-39.424775	-8.065834	15.219622	-171.483240	815.632667	1.814007	-3.497938	-45.000000	44.960516	-45.000000	18.574155	-3351.336140	-2092.330419	23.120693	-180.000000	2524.408708	233.722715	19.097302	12.397955	17.510870	40.373190	-41.606056	-45.000000	-38.917725	1882.505694	-3528.372760	26.550852	-24.041828	731.150909	-339.348823	5.384930	-20.197228	
5.7400	-39.384332	-8.113828	15.238454	-173.555943	816.934279	1.798204	-3.360121	-45.000000	44.929384	-45.000000	18.254091	-3351.298431	-2092.127267	23.181903	-180.000000	2524.334731	233.338857	19.174930	12.435846	17.416662	40.269533	-41.494128	-45.000000	-39.088670	1882.666278	-3528.235647	26.531757	-24.091758	731.183770	-339.721841	5.351784	-20.204638	
5.7500	-39.345525	-8.155721	15.261252	-175.598562	818.232827	1.787259	-3.230362	-45.000000	44.873197	-45.000000	17.892803	-3351.240987	-2091.929748	23.238960	-180.000000	2524.261441	232.951774	19.251137	12.471590	17.330374	40.156595	-41.393657	-45.000000	-39.277332	1882.824201	-3528.100254	26.516008	-24.141941	731.210835	-340.126163	5.325146	-20.209753	
5.7600	-39.309702	-8.190897	15.289222	-177.610607	819.523192	1.778946	-3.110571	-45.000000	44.783091	-45.000000	17.494000	-3351.164675	-2091.736888	23.290449	-180.000000	2524.189766	232.566354	19.324834	12.504627	17.251840	40.038908	-41.304733	-45.000000	-39.480709	1882.978438	-3527.966985	26.501690	-24.200516	731.231599	-340.560271	5.303746	-20.212126	
5.7700	-39.275431	-8.217747	15.323497	-179.592137	820.800271	1.771360	-2.995830	-45.000000	44.655149	-45.000000	17.047044	-3351.067973	-2091.551147	23.339685	-180.000000	2524.116137	232.183873	19.399492	12.536850	17.180757	39.908352	-41.233464	-45.000000	-39.710739	1883.125323	-3527.836479	26.490816	-24.245222	731.240278	-341.032587	5.284099	-20.209378	
5.7800	-39.245205	-8.237750	15.359830	-181.543668	822.059301	1.763077	-2.894106	-45.000000	44.495852	-45.000000	16.577825	-3350.956731	-2091.370037	23.383754	-180.000000	2524.047933	231.813249	19.470536	12.566296	17.114335	39.784067	-41.171833	-45.000000	-39.941393	1883.266971	-3527.708770	26.475851	-24.306882	731.242642	-341.530334	5.271436	-20.205081	
